<svg width="512" height="513" viewBox="0 0 512 513" fill="none" xmlns="http://www.w3.org/2000/svg">
<path d="M498.111 5.60382C508.211 12.6038 513.511 24.7038 511.611 36.8038L447.611 452.804C446.111 462.504 440.211 471.004 431.611 475.804C423.011 480.604 412.711 481.204 403.611 477.404L284.011 427.704L215.511 501.804C206.611 511.504 192.611 514.704 180.311 509.904C168.011 505.104 160.011 493.204 160.011 480.004V396.404C160.011 392.404 161.511 388.604 164.211 385.704L331.811 202.804C337.611 196.504 337.411 186.804 331.411 180.804C325.411 174.804 315.711 174.404 309.411 180.104L106.011 360.804L17.7104 316.604C7.11041 311.304 0.310415 300.704 0.0104156 288.904C-0.289585 277.104 5.91041 266.104 16.1104 260.204L464.111 4.20382C474.811 -1.89618 488.011 -1.29618 498.111 5.60382Z" fill="white"/>
</svg>
